<mxfile host="app.diagrams.net" modified="2023-04-25T17:08:14.388Z" agent="Mozilla/5.0 (Windows NT 10.0; Win64; x64) AppleWebKit/537.36 (KHTML, like Gecko) Chrome/112.0.0.0 Safari/537.36 Edg/112.0.1722.58" version="21.2.2" etag="r_bt5fY6d9GOH2MbD43c" type="github">
  <diagram name="PÃ¡gina-1" id="umnVHxdsEkAIAT6ACsdI">
    <mxGraphModel>
      <root>
        <mxCell id="0" />
        <mxCell id="1" parent="0" />
      </root>
    </mxGraphModel>
  </diagram>
</mxfile>
